<mxfile host="app.diagrams.net" agent="Mozilla/5.0 (Macintosh; Intel Mac OS X 10_15_7) AppleWebKit/537.36 (KHTML, like Gecko) Chrome/136.0.0.0 Safari/537.36" version="26.2.14">
  <diagram name="Page-1" id="Y-y8nMV_wzjHB2zbhsj-">
    <mxGraphModel dx="946" dy="610" grid="1" gridSize="10" guides="1" tooltips="1" connect="1" arrows="1" fold="1" page="1" pageScale="1" pageWidth="850" pageHeight="1100" math="0" shadow="0">
      <root>
        <mxCell id="0" />
        <mxCell id="1" parent="0" />
        <mxCell id="QJWGRvNb380F7AZeIbv6-2" value="PDF Viewer" style="rounded=0;whiteSpace=wrap;html=1;direction=south;fillColor=#d5e8d4;strokeColor=#82b366;" vertex="1" parent="1">
          <mxGeometry x="570" y="120" width="260" height="620" as="geometry" />
        </mxCell>
        <mxCell id="2iqee6Gc0dMgDYeSAd-z-3" value="PDF Viewer" style="rounded=0;whiteSpace=wrap;html=1;direction=south;fillColor=#f5f5f5;fontColor=#333333;strokeColor=#666666;" parent="1" vertex="1">
          <mxGeometry x="40" y="120" width="530" height="620" as="geometry" />
        </mxCell>
        <mxCell id="2iqee6Gc0dMgDYeSAd-z-4" value="Main Application Screen" style="text;strokeColor=none;fillColor=none;html=1;fontSize=24;fontStyle=1;verticalAlign=middle;align=center;" parent="1" vertex="1">
          <mxGeometry x="260" y="40" width="330" height="40" as="geometry" />
        </mxCell>
        <mxCell id="2iqee6Gc0dMgDYeSAd-z-5" value="Ask a question about PDF" style="rounded=1;whiteSpace=wrap;html=1;" parent="1" vertex="1">
          <mxGeometry x="580" y="550" width="240" height="160" as="geometry" />
        </mxCell>
        <mxCell id="2iqee6Gc0dMgDYeSAd-z-7" value="LLM responses and&lt;div&gt;user messages go here&lt;/div&gt;" style="rounded=1;whiteSpace=wrap;html=1;arcSize=8;" parent="1" vertex="1">
          <mxGeometry x="579" y="128" width="243" height="415" as="geometry" />
        </mxCell>
        <mxCell id="2iqee6Gc0dMgDYeSAd-z-8" value="Send" style="labelPosition=center;verticalLabelPosition=middle;align=center;html=1;shape=mxgraph.basic.shaded_button;dx=4;fillColor=#dae8fc;strokeColor=#6c8ebf;whiteSpace=wrap;" parent="1" vertex="1">
          <mxGeometry x="740" y="670" width="60" height="30" as="geometry" />
        </mxCell>
        <mxCell id="2iqee6Gc0dMgDYeSAd-z-10" value="Clear" style="labelPosition=center;verticalLabelPosition=middle;align=center;html=1;shape=mxgraph.basic.shaded_button;dx=4;fillColor=#dae8fc;strokeColor=#6c8ebf;whiteSpace=wrap;" parent="1" vertex="1">
          <mxGeometry x="600" y="670" width="60" height="30" as="geometry" />
        </mxCell>
        <mxCell id="QJWGRvNb380F7AZeIbv6-3" value="Resizable sidebar" style="text;html=1;align=center;verticalAlign=middle;whiteSpace=wrap;rounded=0;" vertex="1" parent="1">
          <mxGeometry x="640" y="710" width="120" height="30" as="geometry" />
        </mxCell>
        <mxCell id="QJWGRvNb380F7AZeIbv6-4" value="" style="triangle;whiteSpace=wrap;html=1;direction=west;fillColor=#ffe6cc;strokeColor=#d79b00;" vertex="1" parent="1">
          <mxGeometry x="550" y="425" width="30" height="30" as="geometry" />
        </mxCell>
      </root>
    </mxGraphModel>
  </diagram>
</mxfile>
